<?xml version="1.0" encoding="utf-8"?>
<!-- Generator: Adobe Illustrator 16.0.0, SVG Export Plug-In . SVG Version: 6.00 Build 0)  -->
<!DOCTYPE svg PUBLIC "-//W3C//DTD SVG 1.1//EN" "http://www.w3.org/Graphics/SVG/1.1/DTD/svg11.dtd">
<svg version="1.1" id="Layer_1" xmlns="http://www.w3.org/2000/svg" xmlns:xlink="http://www.w3.org/1999/xlink" x="0px" y="0px"
	 width="271px" height="105.5px" viewBox="81.5 0 271 105.5" enable-background="new 81.5 0 271 105.5" xml:space="preserve">
<rect x="68.5" y="-8.5" fill="#FFFFFF" width="295" height="123"/>
<g>
	<rect x="224.223" y="51.742" fill="#5F9CBE" width="1.471" height="22.342"/>
	<rect x="232.748" y="58.503" fill="#5F9CBE" width="0.798" height="7.854"/>
	<rect x="236.191" y="51.154" fill="#5F9CBE" width="0.588" height="5.459"/>
	<rect x="237.326" y="68.75" fill="#5F9CBE" width="0.924" height="5.922"/>
	<path fill="#5F9CBE" d="M217.168,51.406l0.714-0.252l0.714,0.126v0.84c0,0-2.897,0.084-3.023,1.428v14.698
		c0,0.252,0,0.504-0.084,0.798c-0.294,1.596-1.764,6.426-9.281,6.216l1.596-0.84l3.695-1.302l2.73-5.04l-0.126-15.748
		L217.168,51.406z"/>
	<path fill="#5F9CBE" d="M184.075,51.448l1.764-0.294l0.588,0.168v0.714c0,0-2.729,0.252-2.897,1.344v20.494h-1.764l-1.134-20.788
		L184.075,51.448z"/>
	<path fill="#5F9CBE" d="M166.354,51.7l0.63-0.378c0,0,6.215,0.21,6.719,4.115c0,0,0.84,5.922-5.207,6.846l1.008,1.218v-0.966
		c0,0,5.291,0.462,5.711,4.619c0,0,1.05,8.147-9.154,7.518l2.058-0.546l4.325-2.646c0,0,0.63-4.536,0.42-4.746
		s-1.722-2.729-1.722-2.729l-2.184-0.336l-1.806-1.218l1.092-0.966l2.981-2.479l-0.336-5.837L166.354,51.7z"/>
	<rect x="160.978" y="51.7" fill="#60A5CC" width="1.764" height="22.51"/>
	<polygon fill="#F2F5F4" points="101.554,40.487 96.851,34.943 96.851,14.408 117.008,14.408 117.008,16.55 	"/>
	<g>
		<g>
			<path fill="#32306F" d="M267.017,72.11c-1.219-1.597-2.395-3.192-3.611-4.788c-0.883-1.176-1.807-2.31-2.688-3.443
				c0.252-0.168,0.504-0.336,0.797-0.462c1.723-0.756,3.107-1.848,3.863-3.569c0.631-1.471,0.84-2.982,0.211-4.494
				c-0.084-0.714-0.463-1.302-0.967-1.848c-1.26-1.26-2.855-1.764-4.535-2.016c-0.504-0.336-1.092-0.336-1.638-0.336
				c-3.443-0.042-6.888-0.042-10.373-0.042c0,0.294,0,0.588,0,0.924c0.462,0.042,0.882,0.084,1.345,0.126
				c0.545,0.294,1.301,0.21,1.596,1.05c0,0.252,0,0.63,0,0.966c0,3.947,0,7.854,0,11.801c0,2.016,0,3.989,0,6.006
				c0,1.26-0.127,1.386-1.344,1.638c-0.547,0.126-1.093,0.252-1.681,0.42c0.042,0.294,0.042,0.546,0.084,0.756
				c3.317,0,6.594,0,9.953,0c0-0.294-0.042-0.504-0.042-0.756c-0.924-0.168-1.806-0.378-2.646-0.504
				c-0.588-0.294-0.546-0.798-0.546-1.302c0-2.521,0-5.082,0-7.602c0-0.168,0.042-0.336,0.084-0.63
				c0.756,0.126,1.428,0.252,2.016,0.336c2.226,3.107,4.41,6.089,6.551,9.071c0.715,0.966,1.639,1.428,2.814,1.428
				c1.386,0,2.771,0,4.157,0c0.042,0,0.126-0.084,0.21-0.126c0-0.168,0-0.378,0-0.672c-0.378-0.084-0.756-0.21-1.134-0.252
				C268.444,73.664,267.646,72.992,267.017,72.11z M254.964,62.829c-0.084-0.126-0.126-0.168-0.126-0.21c0-3.36,0-6.72,0-10.079
				c0.042-0.042,0.042-0.084,0.084-0.084c-0.042,0.042-0.042,0.084-0.084,0.084c1.134,0,2.268,0,3.401,0
				c0.63,0.294,1.302,0.504,1.89,0.84c0.42,0.252,0.882,0.672,1.093,1.134c1.092,2.1,1.092,4.199-0.168,6.258
				c-0.757,1.26-2.017,1.806-3.36,2.016C256.812,62.955,255.846,62.829,254.964,62.829z"/>
			<path fill="#32306F" d="M335.974,73.79c-0.756-0.168-1.345-0.588-1.807-1.218c-2.688-3.612-5.417-7.224-8.104-10.877
				c-0.168-0.252-0.294-0.546-0.378-0.714c1.218-1.176,2.394-2.311,3.401-3.57c0.504-0.546,1.008-1.05,1.47-1.596l0,0
				c0.084-0.084,0.126-0.126,0.21-0.21c0.252-0.252,0.546-0.462,0.756-0.714c1.134-1.386,2.562-2.31,4.326-2.688
				c0.042,0,0.126-0.084,0.252-0.168c-0.042-0.21-0.084-0.462-0.084-0.756c-2.395,0-4.746,0-7.056,0
				c-0.336,0.294-0.252,0.546,0.042,0.882c0.378,0.084,0.84,0.168,1.302,0.294c0.294,0.084,0.546,0.252,0.798,0.42
				c-0.588,0.63-1.218,1.26-1.806,1.89c-2.142,2.352-4.283,4.704-6.426,7.056c-0.336,0.378-0.756,0.714-1.176,1.092
				c0.042-0.714,0.042-1.47,0.042-2.184c0-2.185,0-4.368,0-6.51c0-0.336,0-0.714,0-0.966c0.882-0.84,2.017-0.588,2.898-1.134
				c0-0.21-0.042-0.462-0.042-0.672c-0.63-0.168-9.113-0.252-9.281-0.084c0,0.252,0,0.504,0,0.84
				c0.504,0.084,0.966,0.168,1.386,0.21c0.168,0.042,0.336,0.126,0.504,0.168c0.924,0.294,1.008,0.378,1.008,1.344
				c0,6.132,0,12.263,0,18.395c0,1.05-0.168,1.218-1.302,1.428c-0.588,0.126-1.134,0.294-1.722,0.42
				c0.042,0.336,0.042,0.504,0.042,0.756c3.149,0,6.215,0,9.365,0c-0.042-0.294-0.042-0.546-0.042-0.756
				c-0.588-0.168-1.092-0.378-1.596-0.378c-0.589-0.042-0.967-0.378-1.345-0.756c0-2.269,0-4.536,0.042-6.804
				c0-0.378,0.126-0.756,0.168-1.134c-0.042-0.042-0.084-0.084-0.168-0.126c0.042,0.042,0.084,0.084,0.168,0.126
				c0.546-0.504,1.093-0.966,1.681-1.512c2.478,3.359,4.913,6.677,7.391,10.037c-0.924,0.21-1.764,0.42-2.52,0.588
				c0,0.294,0,0.504,0,0.756c2.939,0,5.837,0,8.777,0c0-0.252,0-0.462,0-0.714C336.729,74,336.352,73.874,335.974,73.79z"/>
			<path fill="#32306F" d="M292.13,60.436c0-0.42-0.126-0.756-0.336-1.135c-0.126-0.294-0.042-0.798-0.168-1.176
				c-0.294-0.798-0.63-1.596-1.008-2.352c-0.967-1.764-2.395-3.107-4.199-3.947c-2.814-1.26-5.754-1.554-8.736-0.672
				c-1.848,0.546-3.4,1.596-4.619,3.065c-1.932,2.352-2.813,5.081-2.939,8.063c-0.042,1.218,0.042,2.478,0.252,3.695
				c0.504,3.065,1.722,5.712,4.326,7.518c1.176,0.84,2.477,1.512,3.989,1.554c0.588,0.126,1.218,0.252,1.806,0.294
				c1.218,0.084,2.436,0.084,3.611-0.336c0.546-0.168,1.092-0.336,1.639-0.504c0.881-0.126,1.428-0.756,2.141-1.218l0,0l0,0l0,0
				c0.295-0.21,0.588-0.378,0.84-0.63c2.143-2.143,3.276-4.746,3.57-7.686c0.126-1.344,0.042-2.688,0-4.031
				C292.298,60.813,292.466,60.52,292.13,60.436z M276.55,71.69c-1.26-1.639-1.848-3.486-2.184-5.46
				c-0.336-1.89-0.295-3.821-0.211-5.753c0.043-0.504,0.127-0.966,0.168-1.471c0.168-0.588,0.295-1.176,0.463-1.722
				c0.713-2.058,1.848-3.821,3.947-4.745c1.428-0.63,2.897-0.504,4.367-0.294c0.462,0.252,0.966,0.462,1.386,0.756
				c1.302,0.84,2.142,2.058,2.729,3.443c0.547,1.26,0.883,2.562,1.008,3.906c0.127,1.47,0.252,2.897,0.211,4.367
				c-0.127,2.226-0.547,4.367-1.764,6.299C284.108,75.26,278.901,74.756,276.55,71.69z"/>
			<path fill="#32306F" d="M314.136,70.22c-0.588-0.168-0.882,0.168-1.134,0.546c-0.756,0.462-1.428,1.051-2.227,1.429
				c-2.604,1.218-5.249,1.302-7.937,0.252c-1.134-0.462-1.974-1.219-2.688-2.059c-0.799-0.966-1.387-2.142-1.597-3.443
				c-0.126-0.798-0.294-1.596-0.462-2.394c-0.042-0.672-0.084-1.344-0.126-2.016c-0.084-1.68,0.21-3.36,0.672-4.956
				c0.546-1.848,1.513-3.443,3.234-4.451c0.84-0.504,1.764-0.672,2.729-0.84c1.764,0,3.401,0.42,5.039,1.134
				c0.714,0.294,1.219,0.756,1.428,1.554c0.169,0.63,0.463,1.26,0.715,1.848c0.294,0.84,0.294,0.84,1.47,0.672
				c0-1.806,0-3.569,0-5.375c-0.126-0.084-0.21-0.168-0.294-0.21c-0.21-0.042-0.42-0.042-0.63-0.084
				c-0.126-0.084-0.21-0.168-0.336-0.21c-1.681-0.336-3.318-0.756-4.998-1.008c-2.142-0.294-4.283,0-6.257,0.966
				c-4.116,2.016-6.09,5.501-6.552,9.911c-0.21,2.058-0.042,4.115,0.588,6.131c1.05,3.275,3.065,5.628,6.3,6.888
				c1.596,0.63,3.275,0.672,4.913,0.756c0.672,0.042,1.386-0.252,2.058-0.378c0-0.042,0-0.042,0-0.084c0,0.042,0,0.042,0,0.084
				c0.588,0.126,1.092-0.252,1.596-0.42c1.723-0.672,3.234-1.68,4.62-2.897C314.22,71.186,314.388,70.682,314.136,70.22z"/>
		</g>
	</g>
	<path fill="#89D0EB" d="M174.164,66.44c-0.756-3.569-6.257-4.283-6.257-4.283c5.795-1.596,4.703-6.762,4.703-6.762
		c-0.63-4.241-7.349-4.241-7.349-4.241h-9.617c-0.294,1.134,1.554,0.966,1.554,0.966c1.47,0,1.386,1.218,1.386,1.218v19.234
		c-0.21,1.176-2.394,1.176-2.394,1.176c-0.84,0.21-0.588,0.84-0.588,0.84h10.373C175.97,74.168,174.164,66.44,174.164,66.44z
		 M161.775,52.288h3.107c0.883,0,1.765,0.252,2.479,0.756c2.31,1.68,2.1,4.913,2.1,4.913c0,2.269-1.47,3.234-2.646,3.654
		c-0.63,0.21-1.302,0.336-1.933,0.336h-3.107V52.288z M170.889,69.422c-0.504,3.738-3.863,3.99-3.863,3.99h-5.208V63.249
		c2.855-0.21,5.334,0,5.334,0C171.435,64.173,170.889,69.422,170.889,69.422z"/>
	<path fill="#89D0EB" d="M193.272,68.078l-1.554,5.334h-9.197V53.758c0.21-1.806,3.317-1.848,3.317-1.848v-0.756h-9.407v0.756
		c3.15,0.294,3.108,1.344,3.108,1.344v19.234c0,1.092-3.108,1.344-3.108,1.344v0.84h17.765v-0.84V68.12h-0.924V68.078z"/>
	<path fill="#89D0EB" d="M210.364,51.154v0.714c0,0,2.016,0.168,2.478,0.63c0,0,0.505,0.336,0.505,0.924v14.404
		c0,0.924-0.21,1.848-0.631,2.646c-0.714,1.387-2.226,3.024-5.459,3.192c-0.336,0-0.672,0-1.008-0.084
		c-1.26-0.252-4.451-1.134-5.376-4.452c-0.126-0.42-0.168-0.882-0.168-1.344V53.632c0,0-0.168-1.722,3.066-1.722v-0.714h-9.155
		v0.714c0,0,2.981,0.294,2.981,1.302V68.33c0,0,0.084,6.426,7.35,6.93c0,0,9.281,0.882,9.869-6.972c0-0.084,0-0.21,0-0.294V53.59
		c0,0,0-1.428,3.107-1.68v-0.714h-7.56V51.154z"/>
	<path fill="#89D0EB" d="M236.527,68.75l-1.386,4.746h-10.204V63.081h5.921l1.47,3.401h0.756v-8.147h-0.84l-1.344,3.402h-5.963
		v-9.533h8.608l1.68,4.409h0.042h0.84h0.084v-4.409v-0.336v-0.336v-0.378h-0.924h-16.21v0.756c0,0,2.729,0.21,2.939,1.218v18.94
		c0,0.462-0.21,0.924-0.588,1.218c-0.462,0.336-1.176,0.672-2.352,0.672v0.756h18.521v-0.756v-5.166h-1.051V68.75z"/>
	<polygon fill="#89D0EB" points="132.043,49.181 111.717,49.181 111.717,64.299 111.717,68.288 111.717,91.092 126.037,91.092 
		126.037,68.288 132.043,68.288 	"/>
	<rect x="127.927" y="70.01" fill="#89D0EB" width="17.807" height="21.082"/>
	<polygon fill="#2F2F6A" points="117.008,16.55 96.851,34.943 96.851,91.092 110.037,91.092 110.037,47.038 117.008,47.038 	"/>
</g>
</svg>
